HIERARCHY
ROOT Character1_Hips
{
	OFFSET 0.000000 86.858185 1.182688
	CHANNELS 6 Xposition Yposition Zposition Xrotation Yrotation Zrotation
	JOINT Character1_LeftUpLeg
	{
		OFFSET 7.276832 -6.057800 0.207883
		CHANNELS 6 Xposition Yposition Zposition Xrotation Yrotation Zrotation
		JOINT Character1_LeftLeg
		{
			OFFSET -1.823140 -35.110466 -1.568847
			CHANNELS 6 Xposition Yposition Zposition Xrotation Yrotation Zrotation
			JOINT Character1_LeftFoot
			{
				OFFSET -1.031196 -37.817070 -1.726818
				CHANNELS 6 Xposition Yposition Zposition Xrotation Yrotation Zrotation
				JOINT Character1_LeftToeBase
				{
					OFFSET 0.202457 -5.287532 8.122427
					CHANNELS 6 Xposition Yposition Zposition Xrotation Yrotation Zrotation
					End Site
					{
						OFFSET 0.009223 0.000047 9.693953
					}
				}
			}
		}
	}
	JOINT Character1_RightUpLeg
	{
		OFFSET -7.276832 -6.057770 0.207879
		CHANNELS 6 Xposition Yposition Zposition Xrotation Yrotation Zrotation
		JOINT Character1_RightLeg
		{
			OFFSET 1.823196 -35.109627 -1.587624
			CHANNELS 6 Xposition Yposition Zposition Xrotation Yrotation Zrotation
			JOINT Character1_RightFoot
			{
				OFFSET 1.031267 -37.817833 -1.710079
				CHANNELS 6 Xposition Yposition Zposition Xrotation Yrotation Zrotation
				JOINT Character1_RightToeBase
				{
					OFFSET -0.202449 -5.287759 8.122276
					CHANNELS 6 Xposition Yposition Zposition Xrotation Yrotation Zrotation
					End Site
					{
						OFFSET 0.001154 -0.000006 9.693956
					}
				}
			}
		}
	}
	JOINT Character1_Spine
	{
		OFFSET -0.000001 2.271347 0.818150
		CHANNELS 6 Xposition Yposition Zposition Xrotation Yrotation Zrotation
		JOINT Character1_Spine1
		{
			OFFSET -0.000001 9.085945 0.955446
			CHANNELS 6 Xposition Yposition Zposition Xrotation Yrotation Zrotation
			JOINT Character1_Spine2
			{
				OFFSET -0.000002 8.765564 -0.142866
				CHANNELS 6 Xposition Yposition Zposition Xrotation Yrotation Zrotation
				JOINT Character1_LeftShoulder
				{
					OFFSET 4.211487 11.612236 -3.873799
					CHANNELS 6 Xposition Yposition Zposition Xrotation Yrotation Zrotation
					JOINT Character1_LeftArm
					{
						OFFSET 5.543700 0.000031 -0.000005
						CHANNELS 6 Xposition Yposition Zposition Xrotation Yrotation Zrotation
						JOINT Character1_LeftForeArm
						{
							OFFSET 23.377409 -0.123474 0.033367
							CHANNELS 6 Xposition Yposition Zposition Xrotation Yrotation Zrotation
							JOINT Character1_LeftHand
							{
								OFFSET 16.247719 -0.118858 0.035829
								CHANNELS 6 Xposition Yposition Zposition Xrotation Yrotation Zrotation
								JOINT Character1_LeftHandThumb1
								{
									OFFSET 2.510399 -0.904045 2.091601
									CHANNELS 6 Xposition Yposition Zposition Xrotation Yrotation Zrotation
									JOINT Character1_LeftHandThumb2
									{
										OFFSET 2.570465 -1.130470 1.584520
										CHANNELS 6 Xposition Yposition Zposition Xrotation Yrotation Zrotation
										JOINT Character1_LeftHandThumb3
										{
											OFFSET 1.420841 -0.605858 0.842600
											CHANNELS 6 Xposition Yposition Zposition Xrotation Yrotation Zrotation
											JOINT Character1_LeftHandThumb4
											{
												OFFSET 2.153469 -0.757797 1.312965
												CHANNELS 6 Xposition Yposition Zposition Xrotation Yrotation Zrotation
												End Site
												{
													OFFSET 2.158772 -0.733734 1.317914
												}
											}
										}
									}
								}
								JOINT Character1_LeftHandIndex1
								{
									OFFSET 8.043888 0.989311 2.480770
									CHANNELS 6 Xposition Yposition Zposition Xrotation Yrotation Zrotation
									JOINT Character1_LeftHandIndex2
									{
										OFFSET 2.427021 0.011856 0.268371
										CHANNELS 6 Xposition Yposition Zposition Xrotation Yrotation Zrotation
										JOINT Character1_LeftHandIndex3
										{
											OFFSET 1.609932 0.007866 0.037315
											CHANNELS 6 Xposition Yposition Zposition Xrotation Yrotation Zrotation
											JOINT Character1_LeftHandIndex4
											{
												OFFSET 2.130016 0.049431 0.114431
												CHANNELS 6 Xposition Yposition Zposition Xrotation Yrotation Zrotation
												End Site
												{
													OFFSET 2.119099 0.211617 -0.131005
												}
											}
										}
									}
								}
								JOINT Character1_LeftHandMiddle1
								{
									OFFSET 8.038177 1.007423 0.439338
									CHANNELS 6 Xposition Yposition Zposition Xrotation Yrotation Zrotation
									JOINT Character1_LeftHandMiddle2
									{
										OFFSET 2.527046 -0.234444 -0.080977
										CHANNELS 6 Xposition Yposition Zposition Xrotation Yrotation Zrotation
										JOINT Character1_LeftHandMiddle3
										{
											OFFSET 1.931313 -0.179352 -0.117768
											CHANNELS 6 Xposition Yposition Zposition Xrotation Yrotation Zrotation
											JOINT Character1_LeftHandMiddle4
											{
												OFFSET 2.196999 0.041229 -0.161456
												CHANNELS 6 Xposition Yposition Zposition Xrotation Yrotation Zrotation
												End Site
												{
													OFFSET 2.197571 -0.071640 -0.141814
												}
											}
										}
									}
								}
								JOINT Character1_LeftHandRing1
								{
									OFFSET 7.662090 0.616508 -1.366725
									CHANNELS 6 Xposition Yposition Zposition Xrotation Yrotation Zrotation
									JOINT Character1_LeftHandRing2
									{
										OFFSET 2.249855 -0.592636 -0.461933
										CHANNELS 6 Xposition Yposition Zposition Xrotation Yrotation Zrotation
										JOINT Character1_LeftHandRing3
										{
											OFFSET 1.521790 -0.400856 -0.248318
											CHANNELS 6 Xposition Yposition Zposition Xrotation Yrotation Zrotation
											JOINT Character1_LeftHandRing4
											{
												OFFSET 2.446365 -0.396080 -0.528466
												CHANNELS 6 Xposition Yposition Zposition Xrotation Yrotation Zrotation
												End Site
												{
													OFFSET 2.437840 -0.527443 -0.446790
												}
											}
										}
									}
								}
								JOINT Character1_LeftHandPinky1
								{
									OFFSET 6.585136 -0.139000 -2.766160
									CHANNELS 6 Xposition Yposition Zposition Xrotation Yrotation Zrotation
									JOINT Character1_LeftHandPinky2
									{
										OFFSET 1.631428 -0.600632 -0.502815
										CHANNELS 6 Xposition Yposition Zposition Xrotation Yrotation Zrotation
										JOINT Character1_LeftHandPinky3
										{
											OFFSET 1.227242 -0.468956 -0.457904
											CHANNELS 6 Xposition Yposition Zposition Xrotation Yrotation Zrotation
											JOINT Character1_LeftHandPinky4
											{
												OFFSET 1.696033 -0.584229 -0.687828
												CHANNELS 6 Xposition Yposition Zposition Xrotation Yrotation Zrotation
												End Site
												{
													OFFSET 1.705387 -0.567787 -0.678411
												}
											}
										}
									}
								}
							}
						}
					}
				}
				JOINT Character1_RightShoulder
				{
					OFFSET -4.211487 11.612236 -3.873799
					CHANNELS 6 Xposition Yposition Zposition Xrotation Yrotation Zrotation
					JOINT Character1_RightArm
					{
						OFFSET -5.543744 0.000023 -0.000004
						CHANNELS 6 Xposition Yposition Zposition Xrotation Yrotation Zrotation
						JOINT Character1_RightForeArm
						{
							OFFSET -23.377581 -0.123566 0.033386
							CHANNELS 6 Xposition Yposition Zposition Xrotation Yrotation Zrotation
							JOINT Character1_RightHand
							{
								OFFSET -16.247574 -0.118851 0.036247
								CHANNELS 6 Xposition Yposition Zposition Xrotation Yrotation Zrotation
								JOINT Character1_RightHandThumb1
								{
									OFFSET -2.510384 -0.904091 2.091566
									CHANNELS 6 Xposition Yposition Zposition Xrotation Yrotation Zrotation
									JOINT Character1_RightHandThumb2
									{
										OFFSET -2.579426 -1.121681 1.537416
										CHANNELS 6 Xposition Yposition Zposition Xrotation Yrotation Zrotation
										JOINT Character1_RightHandThumb3
										{
											OFFSET -1.429546 -0.616760 0.819528
											CHANNELS 6 Xposition Yposition Zposition Xrotation Yrotation Zrotation
											JOINT Character1_RightHandThumb4
											{
												OFFSET -2.167622 -0.774658 1.279505
												CHANNELS 6 Xposition Yposition Zposition Xrotation Yrotation Zrotation
												End Site
												{
													OFFSET -2.137974 -0.606712 1.413074
												}
											}
										}
									}
								}
								JOINT Character1_RightHandIndex1
								{
									OFFSET -8.043800 0.988876 2.481294
									CHANNELS 6 Xposition Yposition Zposition Xrotation Yrotation Zrotation
									JOINT Character1_RightHandIndex2
									{
										OFFSET -2.426987 0.011948 0.268470
										CHANNELS 6 Xposition Yposition Zposition Xrotation Yrotation Zrotation
										JOINT Character1_RightHandIndex3
										{
											OFFSET -1.609989 0.007927 0.037374
											CHANNELS 6 Xposition Yposition Zposition Xrotation Yrotation Zrotation
											JOINT Character1_RightHandIndex4
											{
												OFFSET -2.129982 0.049034 0.114512
												CHANNELS 6 Xposition Yposition Zposition Xrotation Yrotation Zrotation
												End Site
												{
													OFFSET -2.123772 0.204735 0.006035
												}
											}
										}
									}
								}
								JOINT Character1_RightHandMiddle1
								{
									OFFSET -8.038174 1.006859 0.439860
									CHANNELS 6 Xposition Yposition Zposition Xrotation Yrotation Zrotation
									JOINT Character1_RightHandMiddle2
									{
										OFFSET -2.526997 -0.234062 -0.080875
										CHANNELS 6 Xposition Yposition Zposition Xrotation Yrotation Zrotation
										JOINT Character1_RightHandMiddle3
										{
											OFFSET -1.931465 -0.179070 -0.117694
											CHANNELS 6 Xposition Yposition Zposition Xrotation Yrotation Zrotation
											JOINT Character1_RightHandMiddle4
											{
												OFFSET -2.196987 0.042816 -0.161370
												CHANNELS 6 Xposition Yposition Zposition Xrotation Yrotation Zrotation
												End Site
												{
													OFFSET -2.184029 -0.187660 -0.222307
												}
											}
										}
									}
								}
								JOINT Character1_RightHandRing1
								{
									OFFSET -7.662136 0.615837 -1.366219
									CHANNELS 6 Xposition Yposition Zposition Xrotation Yrotation Zrotation
									JOINT Character1_RightHandRing2
									{
										OFFSET -2.249901 -0.592049 -0.461829
										CHANNELS 6 Xposition Yposition Zposition Xrotation Yrotation Zrotation
										JOINT Character1_RightHandRing3
										{
											OFFSET -1.521889 -0.400475 -0.248259
											CHANNELS 6 Xposition Yposition Zposition Xrotation Yrotation Zrotation
											JOINT Character1_RightHandRing4
											{
												OFFSET -2.446423 -0.395401 -0.528361
												CHANNELS 6 Xposition Yposition Zposition Xrotation Yrotation Zrotation
												End Site
												{
													OFFSET -2.430859 -0.503899 -0.507441
												}
											}
										}
									}
								}
								JOINT Character1_RightHandPinky1
								{
									OFFSET -6.585262 -0.139153 -2.765680
									CHANNELS 6 Xposition Yposition Zposition Xrotation Yrotation Zrotation
									JOINT Character1_RightHandPinky2
									{
										OFFSET -1.631413 -0.601036 -0.502742
										CHANNELS 6 Xposition Yposition Zposition Xrotation Yrotation Zrotation
										JOINT Character1_RightHandPinky3
										{
											OFFSET -1.227207 -0.469040 -0.457860
											CHANNELS 6 Xposition Yposition Zposition Xrotation Yrotation Zrotation
											JOINT Character1_RightHandPinky4
											{
												OFFSET -1.696110 -0.584045 -0.687750
												CHANNELS 6 Xposition Yposition Zposition Xrotation Yrotation Zrotation
												End Site
												{
													OFFSET -1.689350 -0.584435 -0.703875
												}
											}
										}
									}
								}
							}
						}
					}
				}
				JOINT Character1_Neck
				{
					OFFSET -0.000001 15.167763 -4.080687
					CHANNELS 6 Xposition Yposition Zposition Xrotation Yrotation Zrotation
					JOINT Character1_Head
					{
						OFFSET -0.000001 7.825302 -0.202157
						CHANNELS 6 Xposition Yposition Zposition Xrotation Yrotation Zrotation
						End Site
						{
							OFFSET -0.242856 15.320236 -2.107584
						}
					}
				}
				JOINT J_R_Mune_00
				{
					OFFSET -2.925001 2.684891 0.061887
					CHANNELS 6 Xposition Yposition Zposition Xrotation Yrotation Zrotation
					JOINT J_R_Mune_01
					{
						OFFSET -7.794388 2.801010 16.635391
						CHANNELS 6 Xposition Yposition Zposition Xrotation Yrotation Zrotation
						JOINT J_R_Mune_02
						{
							OFFSET 6.838630 -2.377007 -14.605499
							CHANNELS 6 Xposition Yposition Zposition Xrotation Yrotation Zrotation
							End Site
							{
								OFFSET -14.795670 -0.834061 -6.791919
							}
						}
					}
				}
				JOINT J_L_Mune_00
				{
					OFFSET 2.925019 2.684776 0.061883
					CHANNELS 6 Xposition Yposition Zposition Xrotation Yrotation Zrotation
					JOINT J_L_Mune_01
					{
						OFFSET 7.794374 2.801254 16.635433
						CHANNELS 6 Xposition Yposition Zposition Xrotation Yrotation Zrotation
						JOINT J_L_Mune_02
						{
							OFFSET -6.838619 -2.376648 -14.605538
							CHANNELS 3 Xrotation Yrotation Zrotation
							End Site
							{
								OFFSET 14.795649 -0.834076 -6.791907
							}
						}
					}
				}
			}
		}
	}
}
MOTION
Frames: 3
Frame Time: 0.033333
4.303305 86.362534 5.770283 -1.392399 7.683550 0.398948 7.276834 -6.057795 0.207884 6.072120 -12.637970 4.120403 -1.823140 -35.110474 -1.568847 4.748762 16.998908 0.089746 -1.031194 -37.817074 -1.726820 -7.931081 0.901729 -5.969880 0.202457 -5.287531 8.122426 0.000017 0.000192 -0.000812 -7.276832 -6.057776 0.207879 1.205709 0.223894 -10.127449 1.823196 -35.109615 -1.587623 3.367086 -0.554816 0.571528 1.031264 -37.817833 -1.710081 -2.963800 -0.749830 9.375725 -0.202447 -5.287760 8.122277 0.000000 -0.000255 -0.000487 -0.000001 2.271332 0.818149 -0.000001 -0.000123 0.000200 -0.000001 9.085950 0.955446 -3.694379 -1.432508 0.048513 -0.000003 8.765568 -0.142867 3.373648 0.071612 1.218560 4.211488 11.612244 -3.873800 0.000085 -0.000315 -2.457617 5.543686 0.000038 -0.000009 22.532203 -4.640556 -69.767964 23.377405 -0.123468 0.033360 -13.702442 -20.183595 -1.981341 16.247711 -0.118858 0.035828 3.689207 -5.480673 14.903126 2.510396 -0.904049 2.091603 -2.573557 -1.715365 7.432017 2.570475 -1.130458 1.584520 4.641407 14.920041 2.292997 1.420850 -0.605862 0.842598 5.373717 23.291295 2.709222 2.153466 -0.757813 1.312965 -0.000547 0.001076 -0.006096 8.043888 0.989299 2.480768 3.066939 13.710564 1.532178 2.427030 0.011863 0.268371 0.423061 -0.045469 -18.415437 1.609941 0.007874 0.037316 1.369353 0.272022 -24.433101 2.130018 0.049431 0.114429 -0.003217 -0.004236 -0.000985 8.038174 1.007423 0.439336 -0.329491 1.965120 -5.254644 2.527052 -0.234436 -0.080974 -1.320194 0.340388 -23.304682 1.931316 -0.179345 -0.117771 -2.195062 0.974646 -33.186298 2.197009 0.041228 -0.161454 -0.003069 -0.003961 0.001102 7.662091 0.616506 -1.366730 -11.465042 -5.992361 -0.178553 2.249859 -0.592641 -0.461929 -0.738351 1.112415 -28.734015 1.521786 -0.400872 -0.248314 -6.831710 4.426407 -25.212369 2.446366 -0.396080 -0.528461 -0.003443 -0.001549 0.000873 6.585140 -0.138999 -2.766162 -6.188523 -18.307880 5.996276 1.631423 -0.600645 -0.502813 -3.494265 1.741862 -11.170082 1.227250 -0.468959 -0.457908 -10.862893 8.683095 -35.889284 1.696015 -0.584218 -0.687825 -0.000653 -0.000255 -0.000292 -4.211485 11.612230 -3.873800 0.000157 0.000222 -0.000096 -5.543740 0.000027 -0.000004 18.379149 -6.252464 69.704273 -23.377590 -0.123554 0.033387 -21.254826 15.838881 2.477759 -16.247570 -0.118841 0.036250 18.814118 -3.706020 -1.482743 -2.510388 -0.904112 2.091563 -7.055485 -0.039635 -13.731411 -2.579416 -1.121694 1.537415 6.117631 -19.520459 -2.673307 -1.429551 -0.616760 0.819535 7.326708 -30.564823 -3.014705 -2.167627 -0.774667 1.279518 0.009645 0.003634 -0.006427 -8.043808 0.988876 2.481293 2.009638 -9.925540 11.498731 -2.427008 0.011951 0.268469 0.065871 -0.000320 28.214084 -1.609990 0.007920 0.037373 0.000505 -0.000362 5.297984 -2.129973 0.049043 0.114509 -0.001008 -0.008809 0.004656 -8.038185 1.006856 0.439860 1.626930 0.054662 4.583736 -2.527005 -0.234065 -0.080876 -1.121563 -0.261096 37.373316 -1.931444 -0.179057 -0.117691 -1.771965 -1.184821 47.582653 -2.196999 0.042809 -0.161369 -0.000885 -0.002828 -0.003716 -7.662137 0.615835 -1.366216 -0.911270 14.831901 6.673539 -2.249878 -0.592040 -0.461831 -0.411901 -0.168562 26.029977 -1.521887 -0.400479 -0.248253 -4.277602 -1.878493 44.397275 -2.446426 -0.395400 -0.528367 0.004756 0.000948 0.007272 -6.585258 -0.139151 -2.765679 -20.673519 14.545260 1.425884 -1.631421 -0.601018 -0.502744 -4.387706 -2.335255 14.215182 -1.227199 -0.469044 -0.457859 -10.411756 -11.507431 39.806814 -1.696112 -0.584054 -0.687747 0.004195 0.003765 -0.005295 0.000000 15.167761 -4.080688 2.506122 -3.196674 -2.737825 -0.000001 7.825329 -0.202158 2.510348 -3.097536 -2.829063 -2.925000 2.684883 0.061885 -0.000001 0.000002 0.000000 -7.794385 2.801002 16.635386 0.000001 -0.000002 0.000000 6.838633 -2.376999 -14.605505 0.000001 -0.000002 -0.000000 2.925020 2.684791 0.061879 0.000002 0.000000 -0.000000 7.794374 2.801256 16.635427 -0.000003 -0.000002 0.000001 0.000002 0.000007 -0.000001 
4.313643 86.362480 5.725099 -1.338892 7.554144 0.441924 7.276832 -6.057804 0.207884 5.984977 -12.695892 4.029338 -1.823141 -35.110470 -1.568846 4.748601 17.182087 0.088279 -1.031195 -37.817062 -1.726821 -7.901409 0.897088 -5.952852 0.202459 -5.287531 8.122426 0.000015 0.000197 -0.000799 -7.276831 -6.057774 0.207879 0.250996 2.142760 -9.645132 1.823196 -35.109623 -1.587624 5.590851 -2.057795 0.017926 1.031264 -37.817833 -1.710082 -3.705078 -0.847010 9.560558 -0.202447 -5.287760 8.122276 -1.316365 -0.000231 -0.000509 -0.000001 2.271344 0.818150 -0.506558 -0.086834 0.025140 -0.000001 9.085938 0.955446 -3.595732 -1.432139 0.054600 -0.000002 8.765570 -0.142870 4.364844 0.071554 1.191487 4.211487 11.612254 -3.873793 0.000144 -0.000295 -0.735102 5.543690 0.000037 -0.000006 22.026020 -4.937721 -70.311087 23.377401 -0.123470 0.033366 -13.953843 -20.984807 -2.205801 16.247726 -0.118844 0.035831 7.485840 -5.999073 14.534176 2.510402 -0.904059 2.091607 -2.573534 -1.715414 7.432000 2.570457 -1.130468 1.584518 4.641392 14.920075 2.292954 1.420843 -0.605850 0.842594 5.373630 23.291322 2.709347 2.153456 -0.757812 1.312954 -0.000557 0.001093 -0.006096 8.043887 0.989301 2.480771 3.066934 13.710577 1.532282 2.427022 0.011858 0.268372 0.423029 -0.045479 -18.415404 1.609939 0.007872 0.037315 1.369362 0.271969 -24.433176 2.130007 0.049433 0.114430 -0.003253 -0.004194 -0.000994 8.038171 1.007424 0.439338 -0.329467 1.965122 -5.254539 2.527045 -0.234440 -0.080973 -1.320227 0.340339 -23.304829 1.931313 -0.179341 -0.117771 -2.195037 0.974645 -33.186134 2.197003 0.041212 -0.161455 -0.003114 -0.003935 0.001101 7.662086 0.616503 -1.366728 -11.465033 -5.992395 -0.178453 2.249858 -0.592647 -0.461934 -0.738313 1.112435 -28.734008 1.521795 -0.400865 -0.248316 -6.831727 4.426383 -25.212446 2.446371 -0.396089 -0.528469 -0.003446 -0.001560 0.000993 6.585142 -0.139006 -2.766159 -6.188481 -18.307895 5.996334 1.631428 -0.600634 -0.502815 -3.494310 1.741899 -11.170079 1.227246 -0.468950 -0.457902 -10.862926 8.683097 -35.889308 1.696016 -0.584233 -0.687829 -0.000567 -0.000219 -0.000158 -4.211487 11.612232 -3.873794 0.015770 0.630131 -1.418803 -5.543736 0.000020 -0.000004 18.172879 -6.518119 70.678360 -23.377584 -0.123560 0.033374 -22.351447 18.961915 3.864532 -16.247587 -0.118842 0.036245 18.811729 -3.795255 -2.077476 -2.510408 -0.904101 2.091563 -7.055520 -0.039584 -13.731373 -2.579418 -1.121677 1.537421 6.117650 -19.520501 -2.673225 -1.429554 -0.616766 0.819537 7.326654 -30.564789 -3.014780 -2.167632 -0.774648 1.279512 0.009692 0.003679 -0.006404 -8.043825 0.988878 2.481294 2.009681 -9.925523 11.498800 -2.427000 0.011949 0.268470 0.065807 -0.000317 28.214077 -1.609988 0.007922 0.037374 0.000572 -0.000264 5.297937 -2.129979 0.049047 0.114510 -0.000988 -0.008880 0.004725 -8.038195 1.006858 0.439860 1.626707 0.054970 4.583938 -2.526991 -0.234067 -0.080875 -1.121411 -0.261386 37.373231 -1.931463 -0.179057 -0.117693 -1.771960 -1.184826 47.582632 -2.196982 0.042822 -0.161372 -0.000882 -0.002821 -0.003732 -7.662153 0.615834 -1.366219 -0.911333 14.831990 6.673631 -2.249905 -0.592055 -0.461831 -0.411949 -0.168567 26.029964 -1.521886 -0.400488 -0.248258 -4.277565 -1.878571 44.397230 -2.446425 -0.395399 -0.528364 0.004800 0.000974 0.007308 -6.585271 -0.139144 -2.765687 -20.673535 14.545274 1.425970 -1.631415 -0.601029 -0.502739 -4.387746 -2.335231 14.215193 -1.227198 -0.469035 -0.457852 -10.411735 -11.507446 39.806739 -1.696115 -0.584061 -0.687755 0.004192 0.003772 -0.005301 -0.000001 15.167758 -4.080681 2.549223 -3.199769 -2.705229 -0.000000 7.825320 -0.202158 2.709773 -3.089866 -2.679118 -2.925001 2.684883 0.061892 -0.000001 -0.000000 -0.000000 -7.794386 2.800995 16.635384 0.000001 -0.000003 -0.000000 6.838629 -2.376991 -14.605501 -0.000001 0.000003 -0.000000 2.925018 2.684792 0.061886 0.000002 -0.000003 -0.000000 7.794373 2.801262 16.635426 -0.000001 0.000002 0.000000 -0.000001 0.000000 -0.000000 
4.345983 86.362640 5.589960 -1.251968 7.346409 0.518358 7.276833 -6.057817 0.207883 5.693817 -12.821016 3.824085 -1.823141 -35.110470 -1.568846 4.927190 17.496641 0.105076 -1.031195 -37.817066 -1.726822 -7.889988 0.894468 -5.937467 0.202459 -5.287532 8.122425 0.000014 0.000185 -0.000790 -7.276832 -6.057782 0.207879 -1.375591 3.637518 -9.061740 1.823195 -35.109619 -1.587620 8.898267 -2.933493 -0.273141 1.031264 -37.817829 -1.710081 -4.496358 -0.916537 9.459935 -0.202448 -5.287758 8.122277 -2.742439 -0.000209 -0.000511 -0.000002 2.271337 0.818150 -1.013276 -0.157858 0.040628 -0.000001 9.085941 0.955446 -3.319289 -1.431063 0.071705 -0.000003 8.765555 -0.142871 5.253906 0.071176 1.117085 4.211488 11.612259 -3.873801 0.000137 -0.000279 1.018041 5.543693 0.000041 -0.000008 20.950902 -5.782919 -70.037866 23.377417 -0.123470 0.033367 -14.687067 -23.206017 -2.836819 16.247726 -0.118866 0.035828 11.598981 -6.589688 14.182864 2.510401 -0.904047 2.091608 -2.573556 -1.715435 7.432042 2.570469 -1.130479 1.584521 4.641416 14.920099 2.293040 1.420837 -0.605856 0.842597 5.373685 23.291307 2.709232 2.153464 -0.757822 1.312957 -0.000523 0.001097 -0.006151 8.043883 0.989307 2.480773 3.066867 13.710579 1.532337 2.427014 0.011869 0.268371 0.423067 -0.045487 -18.415471 1.609945 0.007866 0.037315 1.369412 0.271922 -24.433053 2.130015 0.049422 0.114432 -0.003268 -0.004134 -0.001219 8.038163 1.007427 0.439340 -0.329479 1.965089 -5.254584 2.527041 -0.234444 -0.080973 -1.320218 0.340350 -23.304856 1.931317 -0.179345 -0.117770 -2.195062 0.974631 -33.186212 2.197004 0.041219 -0.161456 -0.003137 -0.003968 0.001112 7.662087 0.616503 -1.366721 -11.465057 -5.992396 -0.178454 2.249858 -0.592634 -0.461936 -0.738324 1.112435 -28.733981 1.521796 -0.400852 -0.248318 -6.831701 4.426365 -25.212492 2.446368 -0.396075 -0.528473 -0.003521 -0.001490 0.000989 6.585132 -0.139010 -2.766157 -6.188465 -18.307928 5.996339 1.631420 -0.600636 -0.502825 -3.494341 1.741912 -11.170155 1.227246 -0.468951 -0.457909 -10.862885 8.683056 -35.889205 1.696039 -0.584222 -0.687832 -0.000621 -0.000228 -0.000221 -4.211486 11.612238 -3.873801 0.057624 1.122703 -2.930720 -5.543733 0.000033 -0.000004 17.215219 -5.622053 70.181246 -23.377594 -0.123577 0.033385 -24.051492 22.686666 5.453752 -16.247589 -0.118863 0.036247 18.807990 -3.892236 -2.721320 -2.510401 -0.904103 2.091564 -7.055437 -0.039694 -13.731494 -2.579424 -1.121683 1.537418 6.117665 -19.520508 -2.673258 -1.429545 -0.616760 0.819540 7.326733 -30.564834 -3.014678 -2.167622 -0.774656 1.279508 0.009664 0.003657 -0.006416 -8.043807 0.988871 2.481295 2.009302 -9.925360 11.498761 -2.426993 0.011940 0.268472 0.066154 -0.000706 28.213876 -1.610008 0.007919 0.037374 0.000561 -0.000288 5.297937 -2.129968 0.049042 0.114508 -0.000995 -0.008851 0.004741 -8.038195 1.006859 0.439861 1.626761 0.054884 4.583887 -2.526994 -0.234063 -0.080877 -1.121384 -0.261426 37.373111 -1.931463 -0.179061 -0.117692 -1.771945 -1.184864 47.582598 -2.197003 0.042833 -0.161373 -0.000818 -0.002801 -0.003722 -7.662146 0.615831 -1.366220 -0.911205 14.831909 6.673550 -2.249904 -0.592040 -0.461834 -0.411943 -0.168580 26.029912 -1.521880 -0.400475 -0.248247 -4.277598 -1.878618 44.397179 -2.446419 -0.395395 -0.528363 0.004842 0.000982 0.007313 -6.585280 -0.139154 -2.765685 -20.673379 14.545240 1.425754 -1.631423 -0.601043 -0.502735 -4.387790 -2.335204 14.215134 -1.227209 -0.469050 -0.457863 -10.411780 -11.507504 39.806783 -1.696097 -0.584071 -0.687754 0.004196 0.003763 -0.005290 -0.000001 15.167770 -4.080689 2.668756 -3.208185 -2.615555 -0.000001 7.825325 -0.202157 2.925303 -3.080922 -2.516730 -2.925001 2.684891 0.061884 -0.000001 -0.000002 -0.000000 -7.794387 2.801025 16.635389 -0.000000 -0.000001 0.000001 6.838630 -2.377007 -14.605498 0.000001 0.000000 -0.000000 2.925019 2.684799 0.061879 0.000001 -0.000005 0.000000 7.794374 2.801255 16.635429 -0.000001 -0.000000 0.000000 0.000002 0.000002 -0.000000 
